<svg width="124" height="56" viewBox="0 0 124 56" fill="none" xmlns="http://www.w3.org/2000/svg">
<path d="M15.0471 35.6127C15.2964 35.686 15.5457 35.7593 15.7951 35.8327C16.0591 35.906 16.3157 35.9793 16.5651 36.0527V36.8887H10.2071V36.0747L12.3631 35.5907L8.18306 23.1827H8.79906L4.48706 35.5027C4.91239 35.576 5.33039 35.664 5.74106 35.7667C6.15172 35.8547 6.56972 35.95 6.99506 36.0527V36.8887H1.09906V36.0747L2.61706 35.5027L7.47906 22.3467H10.2291L15.0471 35.6127ZM4.86106 32.3347V30.9047H12.6271V32.3347H4.86106ZM18.0504 36.8887V36.1847C18.2411 36.082 18.4391 35.9867 18.6444 35.8987C18.8644 35.796 19.1284 35.708 19.4364 35.6347L19.6564 28.4847L18.4684 26.8787C19.4511 26.3067 20.4924 25.9473 21.5924 25.8007L21.8124 28.2647V35.7007L23.2864 36.1407V36.8887H18.0504ZM24.7164 36.8887V36.1847C24.8924 36.082 25.0904 35.9867 25.3104 35.8987C25.5304 35.796 25.7871 35.708 26.0804 35.6347L26.3224 28.7267L28.4564 27.6707V35.7007L29.9524 36.1407V36.8887H24.7164ZM21.6584 28.7487L21.5924 28.2867C21.9884 27.7733 22.4064 27.3187 22.8464 26.9227C23.3011 26.5267 23.7777 26.182 24.2764 25.8887C24.3791 25.874 24.4817 25.8667 24.5844 25.8667C24.7017 25.852 24.8044 25.8447 24.8924 25.8447C25.6111 25.8447 26.2637 25.9987 26.8504 26.3067C27.4371 26.6 27.9724 27.0547 28.4564 27.6707L26.3224 28.7267C25.6037 28.14 24.8411 27.8467 24.0344 27.8467C23.2424 27.8467 22.4504 28.1473 21.6584 28.7487ZM31.5959 36.8887V36.1847C31.7865 36.082 31.9845 35.9867 32.1899 35.8987C32.4099 35.796 32.6739 35.708 32.9819 35.6347L33.2019 28.4847L32.0139 26.8787C32.9965 26.3067 34.0379 25.9473 35.1379 25.8007L35.3579 28.2647V35.7007L36.8319 36.1407V36.8887H31.5959ZM38.2619 36.8887V36.1847C38.4379 36.082 38.6359 35.9867 38.8559 35.8987C39.0759 35.796 39.3325 35.708 39.6259 35.6347L39.8679 28.7267L42.1559 27.9347L42.0019 28.3307V35.7007L43.4979 36.1407V36.8887H38.2619ZM39.8679 28.7267C39.1492 28.14 38.3865 27.8467 37.5799 27.8467C36.7879 27.8467 35.9959 28.1473 35.2039 28.7487L35.1379 28.2867C35.5339 27.7733 35.9519 27.3187 36.3919 26.9227C36.8465 26.5267 37.3232 26.182 37.8219 25.8887C37.9245 25.874 38.0272 25.8667 38.1299 25.8667C38.2472 25.852 38.3499 25.8447 38.4379 25.8447C39.1859 25.8447 39.8679 26.0133 40.4839 26.3507C41.0999 26.688 41.6572 27.216 42.1559 27.9347L39.8679 28.7267ZM44.9279 36.8887V36.1847C45.0892 36.082 45.2799 35.9867 45.4999 35.8987C45.7199 35.796 45.9839 35.708 46.2919 35.6347L46.5119 28.7267L48.6679 27.6707V35.7007L50.1419 36.1407V36.8887H44.9279ZM46.5119 28.7267C45.8079 28.14 45.0525 27.8467 44.2459 27.8467C43.4539 27.8467 42.6545 28.1473 41.8479 28.7487L41.8039 28.2867C42.1999 27.7733 42.6179 27.3187 43.0579 26.9227C43.5125 26.5267 43.9892 26.182 44.4879 25.8887C44.5905 25.874 44.6932 25.8667 44.7959 25.8667C44.8985 25.852 45.0012 25.8447 45.1039 25.8447C45.8079 25.8447 46.4532 25.9987 47.0399 26.3067C47.6412 26.6 48.1839 27.0547 48.6679 27.6707L46.5119 28.7267ZM56.729 37.0867C55.7756 37.0867 54.947 36.8593 54.243 36.4047C53.539 35.95 52.989 35.312 52.593 34.4907C52.2116 33.6693 52.021 32.7087 52.021 31.6087C52.021 30.4793 52.2263 29.482 52.637 28.6167C53.0476 27.7513 53.627 27.0767 54.375 26.5927C55.1376 26.094 56.025 25.8447 57.037 25.8447C57.8583 25.8447 58.577 26.0133 59.193 26.3507C59.809 26.688 60.2856 27.1647 60.623 27.7807C60.9603 28.3967 61.129 29.1153 61.129 29.9367L61.063 31.3887C60.1683 31.55 59.3176 31.682 58.511 31.7847C57.719 31.8727 56.905 31.946 56.069 32.0047C55.2476 32.0487 54.353 32.0927 53.385 32.1367L53.407 30.8387L58.995 30.7947L59.039 29.8707C59.039 29.108 58.8336 28.5067 58.423 28.0667C58.027 27.6267 57.4843 27.4067 56.795 27.4067C56.5016 27.4067 56.201 27.4507 55.893 27.5387C55.585 27.6267 55.2843 27.744 54.991 27.8907C54.727 28.4187 54.5216 28.9687 54.375 29.5407C54.243 30.1127 54.177 30.6847 54.177 31.2567C54.177 32.562 54.485 33.5667 55.101 34.2707C55.7316 34.96 56.6043 35.3047 57.719 35.3047C58.6723 35.3047 59.765 35.0407 60.997 34.5127L61.151 34.9527C60.5203 35.6567 59.8236 36.192 59.061 36.5587C58.313 36.9107 57.5356 37.0867 56.729 37.0867ZM63.2819 36.8887V36.1847C63.4579 36.082 63.6559 35.9867 63.8759 35.8987C64.0959 35.796 64.3599 35.708 64.6679 35.6347L64.9319 23.1387L63.6779 21.4007C64.1912 21.1073 64.7192 20.8727 65.2619 20.6967C65.8192 20.506 66.4132 20.3813 67.0439 20.3227V35.7007L68.5179 36.1407V36.8887H63.2819ZM74.9407 37.0867C74.0607 37.0867 73.2833 36.8667 72.6087 36.4267C71.9487 35.972 71.4353 35.3413 71.0687 34.5347C70.702 33.728 70.5187 32.782 70.5187 31.6967C70.5187 29.8487 71.0247 28.4113 72.0367 27.3847C73.0487 26.358 74.42 25.8447 76.1507 25.8447C76.6347 25.8447 77.1407 25.8887 77.6687 25.9767C78.1967 26.05 78.7467 26.182 79.3187 26.3727L78.9887 28.3307C77.7567 27.7293 76.5833 27.4287 75.4687 27.4287C74.9993 27.4287 74.5447 27.4873 74.1047 27.6047C73.6647 27.7073 73.232 27.876 72.8067 28.1107L73.7307 27.4947C73.4227 28.0373 73.188 28.6533 73.0267 29.3427C72.8653 30.0173 72.7847 30.7287 72.7847 31.4767C72.7847 32.2687 72.8873 32.936 73.0927 33.4787C73.3127 34.0067 73.6207 34.41 74.0167 34.6887C74.4273 34.9527 74.8967 35.0847 75.4247 35.0847C75.7767 35.0847 76.1507 35.0187 76.5467 34.8867C76.9573 34.74 77.3753 34.52 77.8007 34.2267V34.7547C77.4487 35.18 77.06 35.598 76.6347 36.0087C76.224 36.4047 75.7767 36.7567 75.2927 37.0647C75.234 37.0647 75.1753 37.0647 75.1167 37.0647C75.058 37.0793 74.9993 37.0867 74.9407 37.0867ZM79.9567 37.0427C79.59 37.0427 79.238 36.9547 78.9007 36.7787C78.5633 36.588 78.2773 36.3093 78.0427 35.9427C77.808 35.5613 77.6613 35.1067 77.6027 34.5787L77.8227 23.1387L76.6567 21.3787C77.1407 21.1 77.6467 20.8727 78.1747 20.6967C78.7173 20.506 79.304 20.3813 79.9347 20.3227V35.1947L81.9807 35.0187C81.922 35.4733 81.79 35.8547 81.5847 36.1627C81.3793 36.456 81.13 36.676 80.8367 36.8227C80.558 36.9693 80.2647 37.0427 79.9567 37.0427ZM78.6147 20.1027L78.5927 20.0807H78.6147V20.1027ZM88.3419 37.0867C87.3886 37.0867 86.5599 36.8593 85.8559 36.4047C85.1519 35.95 84.6019 35.312 84.2059 34.4907C83.8246 33.6693 83.6339 32.7087 83.6339 31.6087C83.6339 30.4793 83.8393 29.482 84.2499 28.6167C84.6606 27.7513 85.2399 27.0767 85.9879 26.5927C86.7506 26.094 87.6379 25.8447 88.6499 25.8447C89.4713 25.8447 90.1899 26.0133 90.8059 26.3507C91.4219 26.688 91.8986 27.1647 92.2359 27.7807C92.5733 28.3967 92.7419 29.1153 92.7419 29.9367L92.6759 31.3887C91.7813 31.55 90.9306 31.682 90.1239 31.7847C89.3319 31.8727 88.5179 31.946 87.6819 32.0047C86.8606 32.0487 85.9659 32.0927 84.9979 32.1367L85.0199 30.8387L90.6079 30.7947L90.6519 29.8707C90.6519 29.108 90.4466 28.5067 90.0359 28.0667C89.6399 27.6267 89.0973 27.4067 88.4079 27.4067C88.1146 27.4067 87.8139 27.4507 87.5059 27.5387C87.1979 27.6267 86.8973 27.744 86.6039 27.8907C86.3399 28.4187 86.1346 28.9687 85.9879 29.5407C85.8559 30.1127 85.7899 30.6847 85.7899 31.2567C85.7899 32.562 86.0979 33.5667 86.7139 34.2707C87.3446 34.96 88.2173 35.3047 89.3319 35.3047C90.2853 35.3047 91.3779 35.0407 92.6099 34.5127L92.7639 34.9527C92.1333 35.6567 91.4366 36.192 90.6739 36.5587C89.9259 36.9107 89.1486 37.0867 88.3419 37.0867ZM95.0049 36.8887V36.1847C95.1955 36.082 95.3935 35.9867 95.5989 35.8987C95.8189 35.796 96.0829 35.708 96.3909 35.6347L96.6109 28.4847L95.4229 26.8787C96.4055 26.3067 97.4469 25.9473 98.5469 25.8007L98.7669 28.2647V35.7007L100.241 36.1407V36.8887H95.0049ZM101.671 36.8887V36.1847C101.847 36.082 102.045 35.9867 102.265 35.8987C102.485 35.796 102.742 35.708 103.035 35.6347L103.277 28.7267L105.411 27.6707V35.7007L106.907 36.1407V36.8887H101.671ZM98.6129 28.7487L98.5469 28.2867C98.9429 27.7733 99.3609 27.3187 99.8009 26.9227C100.256 26.5267 100.732 26.182 101.231 25.8887C101.334 25.874 101.436 25.8667 101.539 25.8667C101.656 25.852 101.759 25.8447 101.847 25.8447C102.566 25.8447 103.218 25.9987 103.805 26.3067C104.392 26.6 104.927 27.0547 105.411 27.6707L103.277 28.7267C102.558 28.14 101.796 27.8467 100.989 27.8467C100.197 27.8467 99.4049 28.1473 98.6129 28.7487Z" fill="black"/>
<path d="M117.271 19.3263C118.138 19.3263 118.84 20.029 118.84 20.8962C118.84 21.7633 118.138 22.4661 117.271 22.4661C116.403 22.4661 115.701 21.7633 115.701 20.8962C115.701 20.029 116.403 19.3263 117.271 19.3263ZM117.271 26.0544C119.491 26.0544 121.831 27.1458 121.831 27.6243V28.4466H112.71V27.6243C112.71 27.1458 115.05 26.0544 117.271 26.0544ZM117.271 17.9059C115.618 17.9059 114.28 19.244 114.28 20.8962C114.28 22.5483 115.618 23.8864 117.271 23.8864C118.923 23.8864 120.261 22.5483 120.261 20.8962C120.261 19.244 118.923 17.9059 117.271 17.9059ZM117.271 24.634C115.275 24.634 111.29 25.6358 111.29 27.6243V29.867H123.251V27.6243C123.251 25.6358 119.267 24.634 117.271 24.634Z" fill="#F25022"/>
</svg>
