<svg width="30" height="28" viewBox="0 0 30 28" fill="none" xmlns="http://www.w3.org/2000/svg">
<path d="M21.3531 0.648193C18.8301 0.648193 16.4086 1.82269 14.8281 3.67869C13.2476 1.82269 10.8261 0.648193 8.30313 0.648193C3.83713 0.648193 0.328125 4.15719 0.328125 8.62319C0.328125 14.1042 5.25813 18.5702 12.7256 25.3562L14.8281 27.2557L16.9306 25.3417C24.3981 18.5702 29.3281 14.1042 29.3281 8.62319C29.3281 4.15719 25.8191 0.648193 21.3531 0.648193ZM14.9731 23.1957L14.8281 23.3407L14.6831 23.1957C7.78112 16.9462 3.22813 12.8137 3.22813 8.62319C3.22813 5.72319 5.40313 3.54819 8.30313 3.54819C10.5361 3.54819 12.7111 4.98369 13.4796 6.97019H16.1911C16.9451 4.98369 19.1201 3.54819 21.3531 3.54819C24.2531 3.54819 26.4281 5.72319 26.4281 8.62319C26.4281 12.8137 21.8751 16.9462 14.9731 23.1957Z" fill="black" fill-opacity="0.87"/>
</svg>
