<svg width="69" height="50" viewBox="0 0 69 50" fill="none" xmlns="http://www.w3.org/2000/svg">
<path d="M64.6459 17.6309H64.1057L63.9142 17.4462C64.5844 16.6666 64.9879 15.6544 64.9879 14.5534C64.9879 12.0983 62.9978 10.1082 60.5427 10.1082C58.0875 10.1082 56.0974 12.0983 56.0974 14.5534C56.0974 17.0085 58.0875 18.9986 60.5427 18.9986C61.6437 18.9986 62.6558 18.5951 63.4355 17.9249L63.6201 18.1164V18.6567L67.0395 22.0693L68.0585 21.0503L64.6459 17.6309ZM60.5427 17.6309C58.8398 17.6309 57.4652 16.2563 57.4652 14.5534C57.4652 12.8505 58.8398 11.4759 60.5427 11.4759C62.2455 11.4759 63.6201 12.8505 63.6201 14.5534C63.6201 16.2563 62.2455 17.6309 60.5427 17.6309Z" fill="#F25022"/>
<path d="M6.60797 33.22C5.9413 33.22 5.25464 33.1667 4.54797 33.06C3.8413 32.9533 3.13464 32.7933 2.42797 32.58L3.34797 31.1C3.9613 31.2867 4.6013 31.4267 5.26797 31.52C5.94797 31.6 6.63464 31.64 7.32797 31.64C7.7413 31.64 8.15464 31.6267 8.56797 31.6C8.9813 31.5733 9.4013 31.5267 9.82797 31.46L8.96797 31.7C9.1813 31.6067 9.3813 31.4667 9.56797 31.28C9.75464 31.0933 9.90797 30.8867 10.028 30.66C10.1613 30.4333 10.228 30.1933 10.228 29.94C10.228 29.54 10.0413 29.1867 9.66797 28.88C9.30797 28.56 8.8413 28.2667 8.26797 28C7.69464 27.72 7.08797 27.44 6.44797 27.16C5.80797 26.8667 5.2013 26.54 4.62797 26.18C4.05464 25.8067 3.58797 25.38 3.22797 24.9C2.86797 24.4067 2.68797 23.82 2.68797 23.14C2.68797 22.4067 2.90797 21.78 3.34797 21.26C3.8013 20.7267 4.4413 20.32 5.26797 20.04C6.09464 19.7467 7.06797 19.6 8.18797 19.6C8.81464 19.6 9.43464 19.64 10.048 19.72C10.6746 19.8 11.2813 19.9267 11.868 20.1L11.248 21.64C10.6346 21.48 10.0013 21.36 9.34797 21.28C8.70797 21.1867 8.05464 21.14 7.38797 21.14C6.97464 21.14 6.56797 21.16 6.16797 21.2C5.76797 21.24 5.36797 21.2933 4.96797 21.36L5.92797 21.1C5.59464 21.3 5.32797 21.54 5.12797 21.82C4.92797 22.1 4.82797 22.4067 4.82797 22.74C4.82797 23.18 5.00797 23.5733 5.36797 23.92C5.72797 24.2533 6.19464 24.56 6.76797 24.84C7.3413 25.1067 7.94797 25.3867 8.58797 25.68C9.22797 25.9733 9.83464 26.2933 10.408 26.64C10.9946 26.9867 11.468 27.4 11.828 27.88C12.188 28.3467 12.368 28.9067 12.368 29.56C12.368 30.2933 12.128 30.94 11.648 31.5C11.168 32.0467 10.4946 32.4733 9.62797 32.78C8.7613 33.0733 7.75464 33.22 6.60797 33.22ZM4.58797 32.62L2.42797 32.58L2.52797 28.6H3.40797L4.58797 32.62ZM10.848 23.94L9.72797 20.06L11.868 20.1L11.748 23.94H10.848ZM23.9777 31.46L25.8577 31.3C25.8043 31.7133 25.6843 32.06 25.4977 32.34C25.311 32.6067 25.0843 32.8067 24.8177 32.94C24.551 33.0733 24.2777 33.14 23.9977 33.14C23.6643 33.14 23.3443 33.06 23.0377 32.9C22.731 32.7267 22.471 32.4733 22.2577 32.14C22.0443 31.7933 21.911 31.38 21.8577 30.9L22.0177 25.36L20.9377 23.9C21.911 23.34 22.9243 23.0133 23.9777 22.92V31.46ZM19.6377 33.14C19.531 33.1533 19.431 33.16 19.3377 33.16C19.2443 33.1733 19.151 33.18 19.0577 33.18C18.391 33.18 17.7843 33.04 17.2377 32.76C16.7043 32.48 16.2243 32.0467 15.7977 31.46L17.5577 30.42C18.2777 31.0333 19.051 31.34 19.8777 31.34C20.5843 31.34 21.2977 31.08 22.0177 30.56L22.0577 30.96C21.711 31.4267 21.331 31.84 20.9177 32.2C20.5177 32.56 20.091 32.8733 19.6377 33.14ZM15.7977 31.46L15.9977 25.36L14.8777 23.9C15.9177 23.34 16.9377 23.0133 17.9377 22.92V31.18L15.7977 31.46ZM31.3155 33.18C30.5021 33.18 29.7821 32.9733 29.1555 32.56C28.5421 32.1333 28.0621 31.5467 27.7155 30.8C27.3821 30.04 27.2155 29.16 27.2155 28.16C27.2155 27.08 27.4088 26.1533 27.7955 25.38C28.1955 24.6067 28.7421 24.0133 29.4355 23.6C30.1421 23.1733 30.9621 22.96 31.8955 22.96C32.3488 22.96 32.8021 23.0067 33.2555 23.1C33.7088 23.1933 34.1555 23.3333 34.5955 23.52L34.2955 25.08C33.3221 24.6667 32.2821 24.46 31.1755 24.46C30.8421 24.46 30.5155 24.5067 30.1955 24.6C29.8755 24.68 29.5688 24.8067 29.2755 24.98L30.1955 24.22C29.9021 24.78 29.6821 25.3733 29.5355 26C29.3888 26.6133 29.3155 27.2267 29.3155 27.84C29.3155 28.6267 29.4355 29.2933 29.6755 29.84C29.9288 30.3867 30.2755 30.8067 30.7155 31.1C31.1688 31.3933 31.6955 31.54 32.2955 31.54C32.6555 31.54 33.0355 31.4867 33.4355 31.38C33.8355 31.26 34.2555 31.0933 34.6955 30.88L34.8555 31.26C33.8821 32.54 32.7021 33.18 31.3155 33.18ZM33.7555 26.58L32.7355 23.52H34.5955L34.5355 26.58H33.7555ZM36.5538 33V32.36C36.7138 32.2667 36.8938 32.18 37.0938 32.1C37.2938 32.0067 37.5338 31.9267 37.8138 31.86L38.0538 20.5L36.9138 18.92C37.3804 18.6533 37.8604 18.44 38.3538 18.28C38.8604 18.1067 39.4004 17.9933 39.9738 17.94V31.92L41.3138 32.32V33H36.5538ZM42.6138 33V32.36C42.7738 32.2667 42.9538 32.18 43.1538 32.1C43.3538 32.0067 43.5871 31.9267 43.8538 31.86L44.0738 25.58L46.0138 24.62V31.92L47.3738 32.32V33H42.6138ZM39.8138 25.6L39.7738 25.18C40.1338 24.7133 40.5138 24.3 40.9138 23.94C41.3271 23.58 41.7604 23.2667 42.2138 23C42.3071 22.9867 42.4004 22.98 42.4938 22.98C42.6004 22.9667 42.6938 22.96 42.7738 22.96C43.4138 22.96 44.0004 23.1 44.5338 23.38C45.0804 23.6467 45.5738 24.06 46.0138 24.62L44.0738 25.58C43.4204 25.0467 42.7271 24.78 41.9938 24.78C41.2738 24.78 40.5471 25.0533 39.8138 25.6ZM53.3302 33.18C52.4635 33.18 51.7102 32.9733 51.0702 32.56C50.4302 32.1467 49.9302 31.5667 49.5702 30.82C49.2235 30.0733 49.0502 29.2 49.0502 28.2C49.0502 27.1733 49.2368 26.2667 49.6102 25.48C49.9835 24.6933 50.5102 24.08 51.1902 23.64C51.8835 23.1867 52.6902 22.96 53.6102 22.96C54.3568 22.96 55.0102 23.1133 55.5702 23.42C56.1302 23.7267 56.5635 24.16 56.8702 24.72C57.1768 25.28 57.3302 25.9333 57.3302 26.68L57.2702 28C56.4568 28.1467 55.6835 28.2667 54.9502 28.36C54.2302 28.44 53.4902 28.5067 52.7302 28.56C51.9835 28.6 51.1702 28.64 50.2902 28.68L50.3102 27.5L55.3902 27.46L55.4302 26.62C55.4302 25.9267 55.2435 25.38 54.8702 24.98C54.5102 24.58 54.0168 24.38 53.3902 24.38C53.1235 24.38 52.8502 24.42 52.5702 24.5C52.2902 24.58 52.0168 24.6867 51.7502 24.82C51.5102 25.3 51.3235 25.8 51.1902 26.32C51.0702 26.84 51.0102 27.36 51.0102 27.88C51.0102 29.0667 51.2902 29.98 51.8502 30.62C52.4235 31.2467 53.2168 31.56 54.2302 31.56C55.0968 31.56 56.0902 31.32 57.2102 30.84L57.3502 31.24C56.7768 31.88 56.1435 32.3667 55.4502 32.7C54.7702 33.02 54.0635 33.18 53.3302 33.18Z" fill="black"/>
</svg>
