<svg width="40" height="40" viewBox="0 0 40 40" fill="none" xmlns="http://www.w3.org/2000/svg">
<path fill-rule="evenodd" clip-rule="evenodd" d="M20.0419 0.00439453C9.23248 0.00439453 0.469727 8.76714 0.469727 19.5765C0.469727 30.3859 9.23248 39.1487 20.0419 39.1487C30.8513 39.1487 39.614 30.3859 39.614 19.5765C39.614 8.76714 30.8513 0.00439453 20.0419 0.00439453ZM19.4968 16.5901L19.4557 15.9129C19.3325 14.1576 20.4141 12.5543 22.1253 11.9324C22.7551 11.7112 23.8229 11.6836 24.5212 11.8771C24.795 11.96 25.3152 12.2364 25.6848 12.4852L26.3557 12.9413L27.0949 12.7064C27.5056 12.582 28.0533 12.3747 28.2997 12.2364C28.5324 12.1121 28.7378 12.0429 28.7378 12.0844C28.7378 12.3194 28.2312 13.121 27.8068 13.5633C27.2318 14.1852 27.3961 14.2405 28.5598 13.8259C29.258 13.5909 29.2717 13.5909 29.1348 13.8535C29.0526 13.9917 28.6282 14.4755 28.1765 14.9178C27.4098 15.6779 27.3687 15.7609 27.3687 16.3966C27.3687 17.3779 26.9033 19.4235 26.4378 20.543C25.5753 22.6438 23.7271 24.8138 21.8789 25.9056C19.2778 27.4398 15.8141 27.8268 12.8981 26.9284C11.9261 26.6244 10.2558 25.8504 10.2558 25.7122C10.2558 25.6707 10.7624 25.6154 11.3784 25.6016C12.6653 25.5739 13.9522 25.2146 15.0475 24.5788L15.7867 24.1365L14.9379 23.8463C13.7332 23.4316 12.6516 22.478 12.3778 21.5796C12.2957 21.2894 12.3231 21.2755 13.0897 21.2755L13.8838 21.2617L13.213 20.9438C12.4189 20.543 11.6933 19.8658 11.3374 19.1747C11.0773 18.6771 10.7487 17.4194 10.8445 17.3227C10.8719 17.2812 11.1594 17.3641 11.488 17.4747C12.4326 17.8202 12.5558 17.7373 12.0082 17.1568C10.9814 16.1064 10.6666 14.5446 11.1594 13.0657L11.3921 12.4023L12.2957 13.3007C14.1439 15.1113 16.3207 16.1893 18.8123 16.5072L19.4968 16.5901Z" fill="white"/>
</svg>
