<svg width="11" height="11" viewBox="0 0 11 11" fill="none" xmlns="http://www.w3.org/2000/svg">
<path d="M5.79355 0.194824C2.99242 0.194824 0.724121 2.4682 0.724121 5.26933C0.724121 8.07046 2.99242 10.3438 5.79355 10.3438C8.59975 10.3438 10.8731 8.07046 10.8731 5.26933C10.8731 2.4682 8.59975 0.194824 5.79355 0.194824ZM5.79863 9.32893C3.5557 9.32893 1.73902 7.51226 1.73902 5.26933C1.73902 3.0264 3.5557 1.20973 5.79863 1.20973C8.04156 1.20973 9.85823 3.0264 9.85823 5.26933C9.85823 7.51226 8.04156 9.32893 5.79863 9.32893ZM6.05235 2.73208H5.29118V5.77678L7.95529 7.37525L8.33588 6.75109L6.05235 5.39619V2.73208Z" fill="#838383"/>
</svg>
