<svg width="124" height="56" viewBox="0 0 124 56" fill="none" xmlns="http://www.w3.org/2000/svg">
<path d="M15.0469 35.6127C15.2963 35.686 15.5456 35.7593 15.7949 35.8327C16.0589 35.906 16.3156 35.9793 16.5649 36.0527V36.8887H10.2069V36.0747L12.3629 35.5907L8.18293 23.1827H8.79893L4.48693 35.5027C4.91227 35.576 5.33027 35.664 5.74093 35.7667C6.1516 35.8547 6.5696 35.95 6.99493 36.0527V36.8887H1.09893V36.0747L2.61693 35.5027L7.47893 22.3467H10.2289L15.0469 35.6127ZM4.86093 32.3347V30.9047H12.6269V32.3347H4.86093ZM18.0503 36.8887V36.1847C18.2409 36.082 18.4389 35.9867 18.6443 35.8987C18.8643 35.796 19.1283 35.708 19.4363 35.6347L19.6563 28.4847L18.4683 26.8787C19.4509 26.3067 20.4923 25.9473 21.5923 25.8007L21.8123 28.2647V35.7007L23.2863 36.1407V36.8887H18.0503ZM24.7163 36.8887V36.1847C24.8923 36.082 25.0903 35.9867 25.3103 35.8987C25.5303 35.796 25.7869 35.708 26.0803 35.6347L26.3223 28.7267L28.4563 27.6707V35.7007L29.9523 36.1407V36.8887H24.7163ZM21.6583 28.7487L21.5923 28.2867C21.9883 27.7733 22.4063 27.3187 22.8463 26.9227C23.3009 26.5267 23.7776 26.182 24.2763 25.8887C24.3789 25.874 24.4816 25.8667 24.5843 25.8667C24.7016 25.852 24.8043 25.8447 24.8923 25.8447C25.6109 25.8447 26.2636 25.9987 26.8503 26.3067C27.4369 26.6 27.9723 27.0547 28.4563 27.6707L26.3223 28.7267C25.6036 28.14 24.8409 27.8467 24.0343 27.8467C23.2423 27.8467 22.4503 28.1473 21.6583 28.7487ZM31.5957 36.8887V36.1847C31.7864 36.082 31.9844 35.9867 32.1897 35.8987C32.4097 35.796 32.6737 35.708 32.9817 35.6347L33.2017 28.4847L32.0137 26.8787C32.9964 26.3067 34.0377 25.9473 35.1377 25.8007L35.3577 28.2647V35.7007L36.8317 36.1407V36.8887H31.5957ZM38.2617 36.8887V36.1847C38.4377 36.082 38.6357 35.9867 38.8557 35.8987C39.0757 35.796 39.3324 35.708 39.6257 35.6347L39.8677 28.7267L42.1557 27.9347L42.0017 28.3307V35.7007L43.4977 36.1407V36.8887H38.2617ZM39.8677 28.7267C39.1491 28.14 38.3864 27.8467 37.5797 27.8467C36.7877 27.8467 35.9957 28.1473 35.2037 28.7487L35.1377 28.2867C35.5337 27.7733 35.9517 27.3187 36.3917 26.9227C36.8464 26.5267 37.3231 26.182 37.8217 25.8887C37.9244 25.874 38.0271 25.8667 38.1297 25.8667C38.2471 25.852 38.3497 25.8447 38.4377 25.8447C39.1857 25.8447 39.8677 26.0133 40.4837 26.3507C41.0997 26.688 41.6571 27.216 42.1557 27.9347L39.8677 28.7267ZM44.9277 36.8887V36.1847C45.0891 36.082 45.2797 35.9867 45.4997 35.8987C45.7197 35.796 45.9837 35.708 46.2917 35.6347L46.5117 28.7267L48.6677 27.6707V35.7007L50.1417 36.1407V36.8887H44.9277ZM46.5117 28.7267C45.8077 28.14 45.0524 27.8467 44.2457 27.8467C43.4537 27.8467 42.6544 28.1473 41.8477 28.7487L41.8037 28.2867C42.1997 27.7733 42.6177 27.3187 43.0577 26.9227C43.5124 26.5267 43.9891 26.182 44.4877 25.8887C44.5904 25.874 44.6931 25.8667 44.7957 25.8667C44.8984 25.852 45.0011 25.8447 45.1037 25.8447C45.8077 25.8447 46.4531 25.9987 47.0397 26.3067C47.6411 26.6 48.1837 27.0547 48.6677 27.6707L46.5117 28.7267ZM56.7289 37.0867C55.7755 37.0867 54.9469 36.8593 54.2429 36.4047C53.5389 35.95 52.9889 35.312 52.5929 34.4907C52.2115 33.6693 52.0209 32.7087 52.0209 31.6087C52.0209 30.4793 52.2262 29.482 52.6369 28.6167C53.0475 27.7513 53.6269 27.0767 54.3749 26.5927C55.1375 26.094 56.0249 25.8447 57.0369 25.8447C57.8582 25.8447 58.5769 26.0133 59.1929 26.3507C59.8089 26.688 60.2855 27.1647 60.6229 27.7807C60.9602 28.3967 61.1289 29.1153 61.1289 29.9367L61.0629 31.3887C60.1682 31.55 59.3175 31.682 58.5109 31.7847C57.7189 31.8727 56.9049 31.946 56.0689 32.0047C55.2475 32.0487 54.3529 32.0927 53.3849 32.1367L53.4069 30.8387L58.9949 30.7947L59.0389 29.8707C59.0389 29.108 58.8335 28.5067 58.4229 28.0667C58.0269 27.6267 57.4842 27.4067 56.7949 27.4067C56.5015 27.4067 56.2009 27.4507 55.8929 27.5387C55.5849 27.6267 55.2842 27.744 54.9909 27.8907C54.7269 28.4187 54.5215 28.9687 54.3749 29.5407C54.2429 30.1127 54.1769 30.6847 54.1769 31.2567C54.1769 32.562 54.4849 33.5667 55.1009 34.2707C55.7315 34.96 56.6042 35.3047 57.7189 35.3047C58.6722 35.3047 59.7649 35.0407 60.9969 34.5127L61.1509 34.9527C60.5202 35.6567 59.8235 36.192 59.0609 36.5587C58.3129 36.9107 57.5355 37.0867 56.7289 37.0867ZM63.2818 36.8887V36.1847C63.4578 36.082 63.6558 35.9867 63.8758 35.8987C64.0958 35.796 64.3598 35.708 64.6678 35.6347L64.9318 23.1387L63.6778 21.4007C64.1911 21.1073 64.7191 20.8727 65.2618 20.6967C65.8191 20.506 66.4131 20.3813 67.0438 20.3227V35.7007L68.5178 36.1407V36.8887H63.2818ZM74.9406 37.0867C74.0606 37.0867 73.2832 36.8667 72.6086 36.4267C71.9486 35.972 71.4352 35.3413 71.0686 34.5347C70.7019 33.728 70.5186 32.782 70.5186 31.6967C70.5186 29.8487 71.0246 28.4113 72.0366 27.3847C73.0486 26.358 74.4199 25.8447 76.1506 25.8447C76.6346 25.8447 77.1406 25.8887 77.6686 25.9767C78.1966 26.05 78.7466 26.182 79.3186 26.3727L78.9886 28.3307C77.7566 27.7293 76.5832 27.4287 75.4686 27.4287C74.9992 27.4287 74.5446 27.4873 74.1046 27.6047C73.6646 27.7073 73.2319 27.876 72.8066 28.1107L73.7306 27.4947C73.4226 28.0373 73.1879 28.6533 73.0266 29.3427C72.8652 30.0173 72.7846 30.7287 72.7846 31.4767C72.7846 32.2687 72.8872 32.936 73.0926 33.4787C73.3126 34.0067 73.6206 34.41 74.0166 34.6887C74.4272 34.9527 74.8966 35.0847 75.4246 35.0847C75.7766 35.0847 76.1506 35.0187 76.5466 34.8867C76.9572 34.74 77.3752 34.52 77.8006 34.2267V34.7547C77.4486 35.18 77.0599 35.598 76.6346 36.0087C76.2239 36.4047 75.7766 36.7567 75.2926 37.0647C75.2339 37.0647 75.1752 37.0647 75.1166 37.0647C75.0579 37.0793 74.9992 37.0867 74.9406 37.0867ZM79.9566 37.0427C79.5899 37.0427 79.2379 36.9547 78.9006 36.7787C78.5632 36.588 78.2772 36.3093 78.0426 35.9427C77.8079 35.5613 77.6612 35.1067 77.6026 34.5787L77.8226 23.1387L76.6566 21.3787C77.1406 21.1 77.6466 20.8727 78.1746 20.6967C78.7172 20.506 79.3039 20.3813 79.9346 20.3227V35.1947L81.9806 35.0187C81.9219 35.4733 81.7899 35.8547 81.5846 36.1627C81.3792 36.456 81.1299 36.676 80.8366 36.8227C80.5579 36.9693 80.2646 37.0427 79.9566 37.0427ZM78.6146 20.1027L78.5926 20.0807H78.6146V20.1027ZM88.3418 37.0867C87.3885 37.0867 86.5598 36.8593 85.8558 36.4047C85.1518 35.95 84.6018 35.312 84.2058 34.4907C83.8245 33.6693 83.6338 32.7087 83.6338 31.6087C83.6338 30.4793 83.8392 29.482 84.2498 28.6167C84.6605 27.7513 85.2398 27.0767 85.9878 26.5927C86.7505 26.094 87.6378 25.8447 88.6498 25.8447C89.4712 25.8447 90.1898 26.0133 90.8058 26.3507C91.4218 26.688 91.8985 27.1647 92.2358 27.7807C92.5732 28.3967 92.7418 29.1153 92.7418 29.9367L92.6758 31.3887C91.7812 31.55 90.9305 31.682 90.1238 31.7847C89.3318 31.8727 88.5178 31.946 87.6818 32.0047C86.8605 32.0487 85.9658 32.0927 84.9978 32.1367L85.0198 30.8387L90.6078 30.7947L90.6518 29.8707C90.6518 29.108 90.4465 28.5067 90.0358 28.0667C89.6398 27.6267 89.0972 27.4067 88.4078 27.4067C88.1145 27.4067 87.8138 27.4507 87.5058 27.5387C87.1978 27.6267 86.8972 27.744 86.6038 27.8907C86.3398 28.4187 86.1345 28.9687 85.9878 29.5407C85.8558 30.1127 85.7898 30.6847 85.7898 31.2567C85.7898 32.562 86.0978 33.5667 86.7138 34.2707C87.3445 34.96 88.2172 35.3047 89.3318 35.3047C90.2852 35.3047 91.3778 35.0407 92.6098 34.5127L92.7638 34.9527C92.1332 35.6567 91.4365 36.192 90.6738 36.5587C89.9258 36.9107 89.1485 37.0867 88.3418 37.0867ZM95.0047 36.8887V36.1847C95.1954 36.082 95.3934 35.9867 95.5987 35.8987C95.8187 35.796 96.0827 35.708 96.3907 35.6347L96.6107 28.4847L95.4227 26.8787C96.4054 26.3067 97.4467 25.9473 98.5467 25.8007L98.7667 28.2647V35.7007L100.241 36.1407V36.8887H95.0047ZM101.671 36.8887V36.1847C101.847 36.082 102.045 35.9867 102.265 35.8987C102.485 35.796 102.741 35.708 103.035 35.6347L103.277 28.7267L105.411 27.6707V35.7007L106.907 36.1407V36.8887H101.671ZM98.6127 28.7487L98.5467 28.2867C98.9427 27.7733 99.3607 27.3187 99.8007 26.9227C100.255 26.5267 100.732 26.182 101.231 25.8887C101.333 25.874 101.436 25.8667 101.539 25.8667C101.656 25.852 101.759 25.8447 101.847 25.8447C102.565 25.8447 103.218 25.9987 103.805 26.3067C104.391 26.6 104.927 27.0547 105.411 27.6707L103.277 28.7267C102.558 28.14 101.795 27.8467 100.989 27.8467C100.197 27.8467 99.4047 28.1473 98.6127 28.7487Z" fill="#F25022"/>
<path d="M117.271 19.3263C118.138 19.3263 118.84 20.029 118.84 20.8962C118.84 21.7633 118.138 22.4661 117.271 22.4661C116.403 22.4661 115.701 21.7633 115.701 20.8962C115.701 20.029 116.403 19.3263 117.271 19.3263ZM117.271 26.0544C119.491 26.0544 121.831 27.1458 121.831 27.6243V28.4466H112.71V27.6243C112.71 27.1458 115.05 26.0544 117.271 26.0544ZM117.271 17.9059C115.618 17.9059 114.28 19.244 114.28 20.8962C114.28 22.5483 115.618 23.8864 117.271 23.8864C118.923 23.8864 120.261 22.5483 120.261 20.8962C120.261 19.244 118.923 17.9059 117.271 17.9059ZM117.271 24.634C115.275 24.634 111.29 25.6358 111.29 27.6243V29.867H123.251V27.6243C123.251 25.6358 119.267 24.634 117.271 24.634Z" fill="#F25022"/>
</svg>
