<svg width="35" height="35" viewBox="0 0 35 35" fill="none" xmlns="http://www.w3.org/2000/svg">
<path d="M17.1013 4.68076C19.5573 4.68076 21.5476 6.67098 21.5476 9.12701C21.5476 11.583 19.5573 13.5733 17.1013 13.5733C14.6453 13.5733 12.6551 11.583 12.6551 9.12701C12.6551 6.67098 14.6453 4.68076 17.1013 4.68076ZM17.1013 23.7361C23.3896 23.7361 30.0166 26.8273 30.0166 28.1824V30.5113H4.18601V28.1824C4.18601 26.8273 10.813 23.7361 17.1013 23.7361ZM17.1013 0.657959C12.4222 0.657959 8.63225 4.44786 8.63225 9.12701C8.63225 13.8062 12.4222 17.5961 17.1013 17.5961C21.7804 17.5961 25.5703 13.8062 25.5703 9.12701C25.5703 4.44786 21.7804 0.657959 17.1013 0.657959ZM17.1013 19.7133C11.4482 19.7133 0.163208 22.5504 0.163208 28.1824V34.5341H34.0394V28.1824C34.0394 22.5504 22.7544 19.7133 17.1013 19.7133Z" fill="white"/>
</svg>
