<svg width="41" height="40" viewBox="0 0 41 40" fill="none" xmlns="http://www.w3.org/2000/svg">
<path fill-rule="evenodd" clip-rule="evenodd" d="M20.5458 0.197266C9.73638 0.197266 0.973633 8.96001 0.973633 19.7694C0.973633 30.5788 9.73638 39.3416 20.5458 39.3416C31.3552 39.3416 40.1179 30.5788 40.1179 19.7694C40.1179 8.96001 31.3552 0.197266 20.5458 0.197266ZM16.2425 9.39409C17.356 9.34342 17.7117 9.33102 20.5467 9.33102H20.5434C23.3792 9.33102 23.7337 9.34342 24.8472 9.39409C25.9584 9.44497 26.7174 9.62091 27.3829 9.87905C28.0701 10.1454 28.6507 10.5021 29.2314 11.0827C29.812 11.663 30.1687 12.2453 30.4362 12.9319C30.6928 13.5956 30.8689 14.3542 30.9211 15.4654C30.9711 16.5789 30.9842 16.9347 30.9842 19.7696C30.9842 22.6046 30.9711 22.9595 30.9211 24.0729C30.8689 25.1838 30.6928 25.9425 30.4362 26.6064C30.1687 27.2928 29.812 27.8752 29.2314 28.4554C28.6514 29.036 28.0699 29.3935 27.3835 29.6602C26.7194 29.9183 25.96 30.0942 24.8487 30.1451C23.7352 30.1958 23.3805 30.2082 20.5454 30.2082C17.7107 30.2082 17.3551 30.1958 16.2416 30.1451C15.1306 30.0942 14.3718 29.9183 13.7077 29.6602C13.0216 29.3935 12.4392 29.036 11.8592 28.4554C11.2787 27.8752 10.9221 27.2928 10.6553 26.6062C10.3973 25.9425 10.2214 25.184 10.1703 24.0727C10.1198 22.9592 10.1072 22.6046 10.1072 19.7696C10.1072 16.9347 10.1203 16.5787 10.1701 15.4652C10.2201 14.3544 10.3963 13.5956 10.655 12.9317C10.9225 12.2453 11.2792 11.663 11.8598 11.0827C12.44 10.5023 13.0224 10.1457 13.709 9.87905C14.3727 9.62091 15.1312 9.44497 16.2425 9.39409Z" fill="white"/>
<path fill-rule="evenodd" clip-rule="evenodd" d="M19.6104 11.2123C19.7922 11.212 19.9879 11.2121 20.1989 11.2122L20.5468 11.2123C23.3339 11.2123 23.6643 11.2223 24.7649 11.2723C25.7827 11.3189 26.335 11.4889 26.703 11.6318C27.1901 11.821 27.5374 12.0472 27.9026 12.4125C28.2679 12.7779 28.4941 13.1258 28.6837 13.613C28.8266 13.9805 28.9969 14.5329 29.0432 15.5506C29.0932 16.651 29.1041 16.9816 29.1041 19.7674C29.1041 22.5532 29.0932 22.8838 29.0432 23.9842C28.9967 25.0019 28.8266 25.5543 28.6837 25.9218C28.4945 26.409 28.2679 26.7558 27.9026 27.121C27.5372 27.4863 27.1904 27.7125 26.703 27.9017C26.3355 28.0452 25.7827 28.2148 24.7649 28.2614C23.6645 28.3114 23.3339 28.3223 20.5468 28.3223C17.7595 28.3223 17.4292 28.3114 16.3288 28.2614C15.311 28.2144 14.7587 28.0443 14.3905 27.9015C13.9033 27.7123 13.5554 27.4861 13.19 27.1207C12.8247 26.7554 12.5985 26.4083 12.4089 25.9209C12.266 25.5534 12.0957 25.001 12.0494 23.9833C11.9994 22.8829 11.9894 22.5523 11.9894 19.7648C11.9894 16.9773 11.9994 16.6484 12.0494 15.548C12.0959 14.5303 12.266 13.9779 12.4089 13.6099C12.5981 13.1228 12.8247 12.7749 13.19 12.4095C13.5554 12.0442 13.9033 11.818 14.3905 11.6283C14.7584 11.4848 15.311 11.3152 16.3288 11.2684C17.2917 11.2249 17.6649 11.2119 19.6104 11.2097V11.2123ZM26.1188 12.9454C25.4272 12.9454 24.8661 13.5058 24.8661 14.1976C24.8661 14.8891 25.4272 15.4502 26.1188 15.4502C26.8103 15.4502 27.3714 14.8891 27.3714 14.1976C27.3714 13.506 26.8103 12.945 26.1188 12.945V12.9454ZM15.1861 19.7697C15.1861 16.8093 17.5862 14.4092 20.5465 14.4091C23.507 14.4091 25.9065 16.8093 25.9065 19.7697C25.9065 22.7301 23.5072 25.1293 20.5467 25.1293C17.5863 25.1293 15.1861 22.7301 15.1861 19.7697Z" fill="white"/>
<path fill-rule="evenodd" clip-rule="evenodd" d="M20.5468 16.29C22.4684 16.29 24.0263 17.8478 24.0263 19.7696C24.0263 21.6911 22.4684 23.2491 20.5468 23.2491C18.625 23.2491 17.0673 21.6911 17.0673 19.7696C17.0673 17.8478 18.625 16.29 20.5468 16.29V16.29Z" fill="white"/>
</svg>
