<svg width="41" height="40" viewBox="0 0 41 40" fill="none" xmlns="http://www.w3.org/2000/svg">
<path fill-rule="evenodd" clip-rule="evenodd" d="M20.545 0.00439453C9.73565 0.00439453 0.9729 8.76714 0.9729 19.5765C0.9729 30.3859 9.73565 39.1487 20.545 39.1487C31.3544 39.1487 40.1172 30.3859 40.1172 19.5765C40.1172 8.76714 31.3544 0.00439453 20.545 0.00439453ZM10.3689 16.2151H14.8043V29.5419H10.3689V16.2151ZM15.0964 12.0925C15.0676 10.7858 14.1332 9.79059 12.6159 9.79059C11.0985 9.79059 10.1065 10.7858 10.1065 12.0925C10.1065 13.3721 11.0692 14.396 12.5583 14.396H12.5866C14.1332 14.396 15.0964 13.3721 15.0964 12.0925ZM25.6936 15.9021C28.6123 15.9021 30.8005 17.8073 30.8005 21.9007L30.8003 29.5418H26.365V22.412C26.365 20.6211 25.7232 19.3991 24.1175 19.3991C22.8921 19.3991 22.1622 20.2229 21.8417 21.0186C21.7244 21.3038 21.6956 21.7011 21.6956 22.0994V29.5422H17.2596C17.2596 29.5422 17.318 17.4659 17.2596 16.2154H21.6956V18.103C22.2843 17.1956 23.3386 15.9021 25.6936 15.9021Z" fill="white"/>
</svg>
