<svg width="44" height="39" viewBox="0 0 44 39" fill="none" xmlns="http://www.w3.org/2000/svg">
<path fill-rule="evenodd" clip-rule="evenodd" d="M36.9889 14.6333C36.9889 18.6908 33.6996 21.9802 29.642 21.9802C25.5844 21.9802 22.2951 18.6908 22.2951 14.6333C22.2951 10.5757 25.5844 7.28635 29.642 7.28635C33.6996 7.28635 36.9889 10.5757 36.9889 14.6333Z" stroke="white" stroke-width="2"/>
<g clip-path="url(#clip0)">
<line x1="42" y1="14.9654" x2="39.9926" y2="14.9654" stroke="#F25022" stroke-width="2" stroke-linecap="round" stroke-linejoin="round"/>
</g>
<g clip-path="url(#clip1)">
<line x1="19.2914" y1="14.9654" x2="17.2839" y2="14.9654" stroke="#F25022" stroke-width="2" stroke-linecap="round" stroke-linejoin="round"/>
</g>
<g clip-path="url(#clip2)">
<line x1="42" y1="14.9654" x2="39.9926" y2="14.9654" stroke="#F2F2F2" stroke-width="2" stroke-linecap="round" stroke-linejoin="round"/>
</g>
<g clip-path="url(#clip3)">
<line x1="19.2914" y1="14.9654" x2="17.2839" y2="14.9654" stroke="#F2F2F2" stroke-width="2" stroke-linecap="round" stroke-linejoin="round"/>
</g>
<g clip-path="url(#clip4)">
<line x1="40.1783" y1="21.0999" x2="38.4398" y2="20.0962" stroke="#F2F2F2" stroke-width="2" stroke-linecap="round" stroke-linejoin="round"/>
</g>
<g clip-path="url(#clip5)">
<line x1="35.5334" y1="25.5017" x2="34.5297" y2="23.7632" stroke="#F2F2F2" stroke-width="2" stroke-linecap="round" stroke-linejoin="round"/>
</g>
<g clip-path="url(#clip6)">
<line x1="24.1791" y1="5.83542" x2="23.1754" y2="4.09695" stroke="#F2F2F2" stroke-width="2" stroke-linecap="round" stroke-linejoin="round"/>
</g>
<g clip-path="url(#clip7)">
<line x1="29.3099" y1="26.9913" x2="29.3099" y2="24.9839" stroke="#F2F2F2" stroke-width="2" stroke-linecap="round" stroke-linejoin="round"/>
</g>
<g clip-path="url(#clip8)">
<line x1="29.3099" y1="4.28266" x2="29.3099" y2="2.27525" stroke="#F2F2F2" stroke-width="2" stroke-linecap="round" stroke-linejoin="round"/>
</g>
<g clip-path="url(#clip9)">
<line x1="23.1754" y1="25.1696" x2="24.1791" y2="23.4311" stroke="#F2F2F2" stroke-width="2" stroke-linecap="round" stroke-linejoin="round"/>
</g>
<g clip-path="url(#clip10)">
<line x1="34.5297" y1="5.50331" x2="35.5334" y2="3.76485" stroke="#F2F2F2" stroke-width="2" stroke-linecap="round" stroke-linejoin="round"/>
</g>
<g clip-path="url(#clip11)">
<line x1="18.7736" y1="20.5247" x2="20.5121" y2="19.521" stroke="#F2F2F2" stroke-width="2" stroke-linecap="round" stroke-linejoin="round"/>
</g>
<g clip-path="url(#clip12)">
<line x1="38.4398" y1="9.17035" x2="40.1783" y2="8.16665" stroke="#F2F2F2" stroke-width="2" stroke-linecap="round" stroke-linejoin="round"/>
</g>
<path d="M36.321 14.6333C36.321 18.322 33.3307 21.3123 29.642 21.3123C25.9533 21.3123 22.963 18.322 22.963 14.6333C22.963 10.9445 25.9533 7.95426 29.642 7.95426C33.3307 7.95426 36.321 10.9445 36.321 14.6333Z" fill="#FFB900"/>
<path fill-rule="evenodd" clip-rule="evenodd" d="M20.3333 12.6724C20.3333 12.6724 20.4564 13.2975 20.4984 13.3035C22.765 13.6267 24.4657 14.9489 24.4657 17.3049C24.4657 19.887 22.3725 21.9802 19.7904 21.9802H7.76823C5.18613 21.9802 3.09293 19.887 3.09293 17.3049C3.09293 14.9489 4.83563 12.9999 7.10231 12.6766C7.14431 12.6707 7.18546 12.6694 7.2254 12.6724C7.82759 9.60245 10.533 7.28637 13.7793 7.28637C17.0257 7.28637 19.7311 9.60246 20.3333 12.6724Z" fill="#DBD7D7"/>
<path d="M8.12183 21.9802C5.34444 21.9802 3.09293 19.7873 3.09293 17.0823C3.09293 14.7195 4.81065 12.7475 7.09617 12.2863C7.88188 9.40752 10.5763 7.28637 13.7793 7.28637C17.4004 7.28637 20.3713 9.9972 20.6695 13.4488C22.8139 13.7356 24.4657 15.5271 24.4657 17.6945C24.4657 20.0614 22.4957 21.9802 20.0655 21.9802H8.12183Z" stroke="white" stroke-width="2" stroke-linecap="round" stroke-linejoin="round"/>
<path fill-rule="evenodd" clip-rule="evenodd" d="M30.5175 18.2599C30.5175 18.2599 30.6829 19.0999 30.7394 19.1079C33.7852 19.5422 36.0705 21.3189 36.0705 24.4848C36.0705 27.9545 33.2578 30.7672 29.7881 30.7672H13.6332C10.1635 30.7672 7.3508 27.9545 7.3508 24.4848C7.3508 21.3189 9.69256 18.6999 12.7384 18.2656C12.7949 18.2576 12.8501 18.2558 12.9038 18.2599C13.713 14.1347 17.3484 11.0224 21.7107 11.0224C26.0729 11.0224 29.7083 14.1347 30.5175 18.2599Z" fill="#DBD7D7"/>
<path d="M14.1084 30.7672C10.3763 30.7672 7.3508 27.8206 7.3508 24.1856C7.3508 21.0107 9.65899 18.3608 12.7302 17.741C13.786 13.8727 17.4065 11.0224 21.7107 11.0224C26.5764 11.0224 30.5686 14.6651 30.9693 19.3032C33.8508 19.6885 36.0705 22.096 36.0705 25.0083C36.0705 28.1889 33.4232 30.7672 30.1576 30.7672H14.1084Z" stroke="white" stroke-width="2" stroke-linecap="round" stroke-linejoin="round"/>
<defs>
<clipPath id="clip0">
<rect x="38.3247" y="13.2975" width="5.34321" height="2.6716" rx="1.3358" fill="white"/>
</clipPath>
<clipPath id="clip1">
<rect x="15.6161" y="13.2975" width="5.34321" height="2.6716" rx="1.3358" fill="white"/>
</clipPath>
<clipPath id="clip2">
<rect x="38.3247" y="13.2975" width="5.34321" height="2.6716" rx="1.3358" fill="white"/>
</clipPath>
<clipPath id="clip3">
<rect x="15.6161" y="13.2975" width="5.34321" height="2.6716" rx="1.3358" fill="white"/>
</clipPath>
<clipPath id="clip4">
<rect x="37.8293" y="17.8178" width="5.34321" height="2.6716" rx="1.3358" transform="rotate(30 37.8293 17.8178)" fill="white"/>
</clipPath>
<clipPath id="clip5">
<rect x="35.1402" y="21.4848" width="5.34321" height="2.6716" rx="1.3358" transform="rotate(60 35.1402 21.4848)" fill="white"/>
</clipPath>
<clipPath id="clip6">
<rect x="23.7859" y="1.81856" width="5.34321" height="2.6716" rx="1.3358" transform="rotate(60 23.7859 1.81856)" fill="white"/>
</clipPath>
<clipPath id="clip7">
<rect x="30.9778" y="23.316" width="5.34321" height="2.6716" rx="1.3358" transform="rotate(90 30.9778 23.316)" fill="white"/>
</clipPath>
<clipPath id="clip8">
<rect x="30.9778" y="0.607346" width="5.34321" height="2.6716" rx="1.3358" transform="rotate(90 30.9778 0.607346)" fill="white"/>
</clipPath>
<clipPath id="clip9">
<rect x="26.4575" y="22.8206" width="5.34321" height="2.6716" rx="1.3358" transform="rotate(120 26.4575 22.8206)" fill="white"/>
</clipPath>
<clipPath id="clip10">
<rect x="37.8118" y="3.15436" width="5.34321" height="2.6716" rx="1.3358" transform="rotate(120 37.8118 3.15436)" fill="white"/>
</clipPath>
<clipPath id="clip11">
<rect x="22.7904" y="20.1315" width="5.34321" height="2.6716" rx="1.3358" transform="rotate(150 22.7904 20.1315)" fill="white"/>
</clipPath>
<clipPath id="clip12">
<rect x="42.4567" y="8.77715" width="5.34321" height="2.6716" rx="1.3358" transform="rotate(150 42.4567 8.77715)" fill="white"/>
</clipPath>
</defs>
</svg>
