<svg width="53" height="47" viewBox="0 0 53 47" fill="none" xmlns="http://www.w3.org/2000/svg">
<path fill-rule="evenodd" clip-rule="evenodd" d="M44.5163 17.1392C44.5163 21.9993 40.5764 25.9392 35.7163 25.9392C30.8562 25.9392 26.9163 21.9993 26.9163 17.1392C26.9163 12.2791 30.8562 8.33917 35.7163 8.33917C40.5764 8.33917 44.5163 12.2791 44.5163 17.1392Z" stroke="#333333" stroke-width="2"/>
<g clip-path="url(#clip0)">
<line x1="50.7162" y1="17.3392" x2="47.9162" y2="17.3392" stroke="#F25022" stroke-width="2" stroke-linecap="round" stroke-linejoin="round"/>
</g>
<g clip-path="url(#clip1)">
<line x1="23.5162" y1="17.3392" x2="20.7162" y2="17.3392" stroke="#F25022" stroke-width="2" stroke-linecap="round" stroke-linejoin="round"/>
</g>
<g clip-path="url(#clip2)">
<line x1="50.7162" y1="17.3392" x2="47.9162" y2="17.3392" stroke="#333333" stroke-width="2" stroke-linecap="round" stroke-linejoin="round"/>
</g>
<g clip-path="url(#clip3)">
<line x1="23.5162" y1="17.3392" x2="20.7162" y2="17.3392" stroke="#333333" stroke-width="2" stroke-linecap="round" stroke-linejoin="round"/>
</g>
<g clip-path="url(#clip4)">
<line x1="48.6066" y1="24.8124" x2="46.1818" y2="23.4124" stroke="#333333" stroke-width="2" stroke-linecap="round" stroke-linejoin="round"/>
</g>
<g clip-path="url(#clip5)">
<line x1="43.043" y1="30.2296" x2="41.643" y2="27.8047" stroke="#333333" stroke-width="2" stroke-linecap="round" stroke-linejoin="round"/>
</g>
<g clip-path="url(#clip6)">
<line x1="29.4431" y1="6.67365" x2="28.0431" y2="4.24878" stroke="#333333" stroke-width="2" stroke-linecap="round" stroke-linejoin="round"/>
</g>
<g clip-path="url(#clip7)">
<line x1="35.5162" y1="32.1392" x2="35.5162" y2="29.3392" stroke="#333333" stroke-width="2" stroke-linecap="round" stroke-linejoin="round"/>
</g>
<g clip-path="url(#clip8)">
<line x1="35.5162" y1="4.93915" x2="35.5162" y2="2.13915" stroke="#333333" stroke-width="2" stroke-linecap="round" stroke-linejoin="round"/>
</g>
<g clip-path="url(#clip9)">
<line x1="28.043" y1="30.0296" x2="29.443" y2="27.6047" stroke="#333333" stroke-width="2" stroke-linecap="round" stroke-linejoin="round"/>
</g>
<g clip-path="url(#clip10)">
<line x1="41.6431" y1="6.4737" x2="43.0431" y2="4.04882" stroke="#333333" stroke-width="2" stroke-linecap="round" stroke-linejoin="round"/>
</g>
<g clip-path="url(#clip11)">
<line x1="22.6259" y1="24.4659" x2="25.0508" y2="23.0659" stroke="#333333" stroke-width="2" stroke-linecap="round" stroke-linejoin="round"/>
</g>
<g clip-path="url(#clip12)">
<line x1="46.1817" y1="10.866" x2="48.6066" y2="9.46597" stroke="#333333" stroke-width="2" stroke-linecap="round" stroke-linejoin="round"/>
</g>
<path d="M43.7163 17.1392C43.7163 21.5574 40.1346 25.1392 35.7163 25.1392C31.298 25.1392 27.7163 21.5574 27.7163 17.1392C27.7163 12.7209 31.298 9.13916 35.7163 9.13916C40.1346 9.13916 43.7163 12.7209 43.7163 17.1392Z" fill="#FFB900"/>
<path fill-rule="evenodd" clip-rule="evenodd" d="M24.5665 14.7904C24.5665 14.7904 24.7139 15.5392 24.7642 15.5463C27.4792 15.9335 29.5163 17.5172 29.5163 20.3392C29.5163 23.432 27.0091 25.9392 23.9163 25.9392H9.51626C6.42346 25.9392 3.91626 23.432 3.91626 20.3392C3.91626 17.5172 6.00364 15.1827 8.71863 14.7955C8.76894 14.7884 8.81823 14.7868 8.86606 14.7904C9.58736 11.1133 12.8278 8.33917 16.7163 8.33917C20.6047 8.33917 23.8452 11.1133 24.5665 14.7904Z" fill="#DBD7D7"/>
<path d="M9.93979 25.9392C6.61309 25.9392 3.91626 23.3126 3.91626 20.0725C3.91626 17.2425 5.97372 14.8804 8.71128 14.328C9.65239 10.8798 12.8797 8.33917 16.7163 8.33917C21.0535 8.33917 24.612 11.5862 24.9691 15.7205C27.5377 16.0639 29.5163 18.2098 29.5163 20.8058C29.5163 23.6409 27.1565 25.9392 24.2457 25.9392H9.93979Z" stroke="#333333" stroke-width="2" stroke-linecap="round" stroke-linejoin="round"/>
<path fill-rule="evenodd" clip-rule="evenodd" d="M36.7651 21.483C36.7651 21.483 36.9632 22.4891 37.0308 22.4988C40.679 23.019 43.4164 25.1471 43.4164 28.9391C43.4164 33.0951 40.0473 36.4641 35.8914 36.4641H16.5414C12.3854 36.4641 9.01636 33.0951 9.01636 28.9391C9.01636 25.1471 11.8213 22.0101 15.4695 21.4899C15.5371 21.4803 15.6034 21.4782 15.6677 21.483C16.6369 16.5419 20.9913 12.8141 26.2164 12.8141C31.4414 12.8141 35.7958 16.5419 36.7651 21.483Z" fill="#DBD7D7"/>
<path d="M17.1105 36.4641C12.6402 36.4641 9.01636 32.9347 9.01636 28.5808C9.01636 24.7779 11.7811 21.604 15.4597 20.8616C16.7243 16.2282 21.061 12.8141 26.2164 12.8141C32.0445 12.8141 36.8263 17.1773 37.3062 22.7328C40.7577 23.1942 43.4164 26.0778 43.4164 29.5662C43.4164 33.3758 40.2455 36.4641 36.334 36.4641H17.1105Z" stroke="#333333" stroke-width="2" stroke-linecap="round" stroke-linejoin="round"/>
<defs>
<clipPath id="clip0">
<rect x="46.1162" y="15.5392" width="6.4" height="3.2" rx="1.6" fill="white"/>
</clipPath>
<clipPath id="clip1">
<rect x="18.9163" y="15.5392" width="6.4" height="3.2" rx="1.6" fill="white"/>
</clipPath>
<clipPath id="clip2">
<rect x="46.1162" y="15.5392" width="6.4" height="3.2" rx="1.6" fill="white"/>
</clipPath>
<clipPath id="clip3">
<rect x="18.9163" y="15.5392" width="6.4" height="3.2" rx="1.6" fill="white"/>
</clipPath>
<clipPath id="clip4">
<rect x="45.5229" y="20.9536" width="6.4" height="3.2" rx="1.6" transform="rotate(30 45.5229 20.9536)" fill="white"/>
</clipPath>
<clipPath id="clip5">
<rect x="42.3019" y="25.3458" width="6.4" height="3.2" rx="1.6" transform="rotate(60 42.3019 25.3458)" fill="white"/>
</clipPath>
<clipPath id="clip6">
<rect x="28.7019" y="1.78992" width="6.4" height="3.2" rx="1.6" transform="rotate(60 28.7019 1.78992)" fill="white"/>
</clipPath>
<clipPath id="clip7">
<rect x="37.3163" y="27.5392" width="6.4" height="3.2" rx="1.6" transform="rotate(90 37.3163 27.5392)" fill="white"/>
</clipPath>
<clipPath id="clip8">
<rect x="37.3163" y="0.339172" width="6.4" height="3.2" rx="1.6" transform="rotate(90 37.3163 0.339172)" fill="white"/>
</clipPath>
<clipPath id="clip9">
<rect x="31.9019" y="26.9459" width="6.4" height="3.2" rx="1.6" transform="rotate(120 31.9019 26.9459)" fill="white"/>
</clipPath>
<clipPath id="clip10">
<rect x="45.502" y="3.38995" width="6.4" height="3.2" rx="1.6" transform="rotate(120 45.502 3.38995)" fill="white"/>
</clipPath>
<clipPath id="clip11">
<rect x="27.5096" y="23.7248" width="6.4" height="3.2" rx="1.6" transform="rotate(150 27.5096 23.7248)" fill="white"/>
</clipPath>
<clipPath id="clip12">
<rect x="51.0654" y="10.1248" width="6.4" height="3.2" rx="1.6" transform="rotate(150 51.0654 10.1248)" fill="white"/>
</clipPath>
</defs>
</svg>
